<svg xmlns="http://www.w3.org/2000/svg" width="920" height="236" viewBox="0 0 920 236">
<defs><marker id="head-line" viewBox="0 0 10 10" refX="9" refY="5" markerWidth="9" markerHeight="9" markerUnits="userSpaceOnUse" orient="auto-start-reverse"><path d="M0 1 L9 5 L0 9 z" fill="#6e6e73"/></marker><marker id="head-neutral" viewBox="0 0 10 10" refX="9" refY="5" markerWidth="9" markerHeight="9" markerUnits="userSpaceOnUse" orient="auto-start-reverse"><path d="M0 1 L9 5 L0 9 z" fill="#c7c7cc"/></marker><marker id="head-blue" viewBox="0 0 10 10" refX="9" refY="5" markerWidth="9" markerHeight="9" markerUnits="userSpaceOnUse" orient="auto-start-reverse"><path d="M0 1 L9 5 L0 9 z" fill="#0071e3"/></marker><marker id="head-purple" viewBox="0 0 10 10" refX="9" refY="5" markerWidth="9" markerHeight="9" markerUnits="userSpaceOnUse" orient="auto-start-reverse"><path d="M0 1 L9 5 L0 9 z" fill="#a64fd9"/></marker><marker id="head-green" viewBox="0 0 10 10" refX="9" refY="5" markerWidth="9" markerHeight="9" markerUnits="userSpaceOnUse" orient="auto-start-reverse"><path d="M0 1 L9 5 L0 9 z" fill="#248a3d"/></marker><marker id="head-orange" viewBox="0 0 10 10" refX="9" refY="5" markerWidth="9" markerHeight="9" markerUnits="userSpaceOnUse" orient="auto-start-reverse"><path d="M0 1 L9 5 L0 9 z" fill="#c96a00"/></marker><marker id="head-teal" viewBox="0 0 10 10" refX="9" refY="5" markerWidth="9" markerHeight="9" markerUnits="userSpaceOnUse" orient="auto-start-reverse"><path d="M0 1 L9 5 L0 9 z" fill="#0b8799"/></marker><marker id="head-red" viewBox="0 0 10 10" refX="9" refY="5" markerWidth="9" markerHeight="9" markerUnits="userSpaceOnUse" orient="auto-start-reverse"><path d="M0 1 L9 5 L0 9 z" fill="#d70015"/></marker><marker id="head-gray" viewBox="0 0 10 10" refX="9" refY="5" markerWidth="9" markerHeight="9" markerUnits="userSpaceOnUse" orient="auto-start-reverse"><path d="M0 1 L9 5 L0 9 z" fill="#8e8e93"/></marker><filter id="shadow" x="-20%" y="-20%" width="140%" height="140%"><feDropShadow dx="0" dy="4" stdDeviation="7" flood-color="#000" flood-opacity="0.22"/></filter></defs>
<rect x="20" y="90" width="170" height="56" rx="10" fill="#ebf4ff" stroke="#0071e3" stroke-width="1.25"/>
<text x="105" y="113.9" font-family="ui-monospace, 'SF Mono', SFMono-Regular, Menlo, Consolas, monospace" font-size="13" fill="#1d1d1f" text-anchor="middle">streamUrl</text>
<text x="105" y="130.3" font-family="-apple-system, BlinkMacSystemFont, 'SF Pro Text', 'Helvetica Neue', Helvetica, Arial, sans-serif" font-size="11" fill="#6e6e73" text-anchor="middle">The episode’s identity</text>
<rect x="225" y="90" width="140" height="56" rx="10" fill="#f5f5f7" stroke="#c7c7cc" stroke-width="1.25"/>
<text x="295" y="113.9" font-family="-apple-system, BlinkMacSystemFont, 'SF Pro Text', 'Helvetica Neue', Helvetica, Arial, sans-serif" font-size="13" font-weight="600" fill="#1d1d1f" text-anchor="middle">SHA-256</text>
<text x="295" y="130.3" font-family="-apple-system, BlinkMacSystemFont, 'SF Pro Text', 'Helvetica Neue', Helvetica, Arial, sans-serif" font-size="11" fill="#6e6e73" text-anchor="middle">Hex digest</text>
<rect x="400" y="90" width="155" height="56" rx="10" fill="#f5f5f7" stroke="#c7c7cc" stroke-width="1.25"/>
<text x="477.5" y="113.9" font-family="ui-monospace, 'SF Mono', SFMono-Regular, Menlo, Consolas, monospace" font-size="13" fill="#1d1d1f" text-anchor="middle">&lt;stem&gt;</text>
<text x="477.5" y="130.3" font-family="-apple-system, BlinkMacSystemFont, 'SF Pro Text', 'Helvetica Neue', Helvetica, Arial, sans-serif" font-size="11" fill="#6e6e73" text-anchor="middle">64 hex characters</text>
<path d="M192 118 L223 118" fill="none" stroke="#6e6e73" stroke-width="1.5" marker-end="url(#head-line)"/>
<path d="M367 118 L398 118" fill="none" stroke="#6e6e73" stroke-width="1.5" marker-end="url(#head-line)"/>
<rect x="590" y="20" width="310" height="196" rx="10" fill="#f2f2f5" stroke="#8e8e93" stroke-width="1.25" stroke-dasharray="5 4"/>
<text x="606" y="44" font-family="ui-monospace, 'SF Mono', SFMono-Regular, Menlo, Consolas, monospace" font-size="12" fill="#1d1d1f" text-anchor="start">Application Support/Downloads</text>
<text x="606" y="62" font-family="-apple-system, BlinkMacSystemFont, 'SF Pro Text', 'Helvetica Neue', Helvetica, Arial, sans-serif" font-size="11" fill="#6e6e73" text-anchor="start">Excluded from iCloud backup</text>
<rect x="610" y="78" width="270" height="56" rx="10" fill="#ecf8f0" stroke="#248a3d" stroke-width="1.25"/>
<text x="622" y="101.9" font-family="ui-monospace, 'SF Mono', SFMono-Regular, Menlo, Consolas, monospace" font-size="13" fill="#1d1d1f" text-anchor="start">&lt;stem&gt;.mp3</text>
<text x="622" y="118.3" font-family="-apple-system, BlinkMacSystemFont, 'SF Pro Text', 'Helvetica Neue', Helvetica, Arial, sans-serif" font-size="11" fill="#6e6e73" text-anchor="start">Audio; extension from the URL or type</text>
<rect x="610" y="146" width="270" height="56" rx="10" fill="#ecf8f0" stroke="#248a3d" stroke-width="1.25"/>
<text x="622" y="169.9" font-family="ui-monospace, 'SF Mono', SFMono-Regular, Menlo, Consolas, monospace" font-size="13" fill="#1d1d1f" text-anchor="start">&lt;stem&gt;.json</text>
<text x="622" y="186.3" font-family="-apple-system, BlinkMacSystemFont, 'SF Pro Text', 'Helvetica Neue', Helvetica, Arial, sans-serif" font-size="11" fill="#6e6e73" text-anchor="start">The Episode, saved when it starts</text>
<path d="M557 118 L576.0 118.0 Q582 118 582.0 112.0 L582.0 112.0 Q582 106 588.0 106.0 L608 106" fill="none" stroke="#6e6e73" stroke-width="1.5" marker-end="url(#head-line)"/>
<path d="M557 118 L574.0 118.0 Q582 118 582.0 126.0 L582.0 166.0 Q582 174 590.0 174.0 L608 174" fill="none" stroke="#6e6e73" stroke-width="1.5" marker-end="url(#head-line)"/>
</svg>
